<svg fill="none" height="120" viewBox="0 0 108 120" width="108" xmlns="http://www.w3.org/2000/svg"><path d="m.298899 0c-.149449.463293-.298899.921605-.298899 1.53435v115.71865c0 1.081.303881 1.694.916623 2.307l56.865477-60.2435zm61.319101 63.3068 14.7008 15.1691-20.9876 11.9559s-26.6768 15.1642-41.3876 23.6082zm3.9903-4.1398 15.7719 16.3996c2.4709-1.3749 21.7748-12.4143 24.5298-13.9486 2.909-1.6838 2.615-3.9853.144-5.2108-2.286-1.2703-21.5902-12.3296-24.5094-14.123l-15.9562 16.8978zm-4.0003-3.9853 14.8653-15.7868-21.2169-12.1104s-34.5875-19.78712-46.09515-26.392785l52.45675 54.289985z" fill="#f1f1f1"/></svg>