<svg width="108" height="120" viewBox="0 0 108 120" fill="none" xmlns="http://www.w3.org/2000/svg">
<path d="M0.298899 0C0.14945 0.463293 0 0.921605 0 1.53435V117.253C0 118.334 0.303881 118.947 0.916623 119.56L57.7821 59.3165L0.298899 0ZM61.618 63.3068L76.3188 78.4759L55.3312 90.4318C55.3312 90.4318 28.6544 105.596 13.9436 114.04L61.618 63.3068ZM65.6083 59.167L81.3802 75.5666C83.8511 74.1917 103.155 63.1523 105.91 61.618C108.819 59.9342 108.525 57.6327 106.054 56.4072C103.768 55.1369 84.4638 44.0776 81.5446 42.2842L65.5884 59.182L65.6083 59.167ZM61.608 55.1817L76.4733 39.3949L55.2564 27.2845C55.2564 27.2845 20.6689 7.49738 9.16125 0.891715L61.618 55.1817H61.608Z" fill="#F1F1F1"/>
</svg>
