<svg fill="none" height="108" viewBox="0 0 108 108" width="108" xmlns="http://www.w3.org/2000/svg"><path d="m107.973 27.5523c0-3.3208-.293-6.6147-1.08-9.8546-1.427-5.8947-4.779-10.39451-9.8097-13.69287-2.5828-1.68293-5.4177-2.72688-8.4461-3.271361-2.3264-.418482-4.6708-.607474-7.0377-.6749715-.18-.0134994-.3735-.0449981-.558-.0584975h-54.1057c-.6839.0449981-1.3634.0764967-2.0474.116995-3.3613.193492-6.7047.553476-9.868 1.804425-6.01179 2.3849-10.3496 6.53372-12.89199 12.50948-.86396 2.0159-1.313945 4.1623-1.633431 6.3357-.251989 1.7639-.3959832 3.5324-.4499809 5.3098 0 .144-.0314987.279-.0449981.4185v55.0011c.0449981.63.0764967 1.2735.121495 1.9079.22499 3.6674.69297 7.3077 2.236405 10.6781 2.92487 6.39 7.8207 10.588 14.5524 12.608 1.8899.572 3.8518.842 5.8182 1.026 2.4974.239 4.9948.27 7.5012.27h49.6329c2.3624 0 4.7158-.153 7.0647-.45 3.7033-.477 7.1862-1.575 10.3315-3.644 3.7802-2.489 6.6242-5.7917 8.4592-9.936.837-1.8899 1.319-3.9149 1.665-5.9578.509-3.0373.621-6.1107.617-9.1796-.009-17.0992 0-34.176-.014-51.2663zm-28.9024 17.9542v25.7029c0 1.8765-.261 3.7214-1.0979 5.4268-1.305 2.6549-3.4199 4.3288-6.2458 5.1298-1.5749.45-3.1768.7065-4.8148.7785-4.2748.2025-7.9781-2.6999-8.7431-6.9117-.639-3.4784 1.0215-7.3077 4.6708-9.0987 1.4534-.7199 3.0149-1.1249 4.5808-1.4579 1.7009-.369 3.4109-.6885 5.1028-1.0799 1.2329-.2835 2.0564-1.035 2.2949-2.3219.063-.2835.09-.585.09-.8685 0-8.1672 0-16.3343-.009-24.4925 0-.2789-.045-.5624-.117-.8324-.18-.675-.675-1.0935-1.3679-1.053-.72.045-1.431.1575-2.1375.297-3.4198.675-6.8397 1.3635-10.2595 2.0519l-10.4666 2.1149-6.1827 1.251c-.072.0135-.144.045-.216.0585-1.2464.3465-1.6964.9134-1.7549 2.2049-.009.189 0 .387 0 .585-.009 11.7085 0 23.417-.0135 35.121 0 1.8899-.2115 3.7618-.9675 5.5212-1.2509 2.8799-3.4648 4.6798-6.4527 5.5483-1.5749.45-3.1949.72-4.8373.774-4.3198.1619-7.8972-2.6999-8.6396-6.9478-.63-3.6538 1.0349-7.5821 5.1928-9.3371 1.6064-.6749 3.2848-1.0439 4.9857-1.3949 1.2915-.27 2.5874-.522 3.8699-.7965 1.7234-.3735 2.6234-1.4534 2.6999-3.2128v-.675c0-13.3194 0-26.6479.009-39.9673 0-.5535.0585-1.1249.189-1.6649.3149-1.2825 1.2284-2.0159 2.4568-2.3309 1.1475-.297 2.3174-.504 3.4829-.7425 3.2984-.675 6.5967-1.3319 9.8996-1.9979l10.2145-2.0699c3.0149-.603 6.0298-1.215 9.0446-1.8134.99-.1935 1.9935-.396 2.9879-.477 1.395-.1125 2.3534.765 2.4929 2.1689.036.3285.054.666.054 1.0035.009 8.5946.009 17.1982 0 25.7928z" fill="#f1f1f1"/></svg>