<?xml version="1.0" standalone="no"?>
<!DOCTYPE svg PUBLIC "-//W3C//DTD SVG 20010904//EN"
 "http://www.w3.org/TR/2001/REC-SVG-20010904/DTD/svg10.dtd">
<svg version="1.0" xmlns="http://www.w3.org/2000/svg"
 width="314.000000pt" height="278.000000pt" viewBox="0 0 314.000000 278.000000"
 preserveAspectRatio="xMidYMid meet">

<g transform="translate(0.000000,278.000000) scale(0.100000,-0.100000)"
fill="#f1f1f1" stroke="none">
<path d="M1338 2521 c-125 -27 -180 -47 -290 -103 -389 -198 -622 -581 -621
-1018 1 -377 173 -706 489 -933 77 -56 248 -134 359 -164 93 -26 113 -28 290
-27 173 0 199 2 288 27 186 50 350 142 489 275 237 226 358 506 358 826 0 128
-10 200 -46 323 -107 373 -418 677 -799 779 -137 36 -385 44 -517 15z m337
-51 c301 -32 563 -181 747 -424 292 -387 283 -927 -22 -1311 -344 -432 -965
-530 -1428 -225 -95 63 -204 167 -277 265 -127 170 -205 410 -205 630 0 163
49 359 125 504 105 199 309 388 514 477 179 77 354 104 546 84z"/>
<path d="M2054 1931 c-16 -10 -45 -37 -64 -60 -19 -24 -125 -135 -235 -247
l-200 -205 -188 193 c-103 106 -211 219 -241 251 -29 31 -60 57 -69 57 -27 0
-77 -50 -77 -76 0 -26 92 -134 114 -134 6 0 94 -83 196 -185 l185 -185 -228
-228 c-177 -178 -227 -234 -227 -253 0 -30 28 -59 56 -59 12 0 108 89 249 230
l230 230 245 -245 c161 -160 253 -245 266 -245 12 0 28 8 37 18 38 42 28 56
-225 310 l-243 242 202 198 c111 108 229 221 262 251 68 61 78 92 39 128 -34
30 -52 33 -84 14z m-532 -664 c-331 -330 -442 -436 -455 -431 -9 3 -17 11 -17
18 0 6 201 211 446 456 423 423 446 444 455 420 9 -23 -18 -52 -429 -463z m-7
113 c-14 -13 -33 3 -177 147 -141 141 -159 163 -147 176 12 14 33 -4 176 -146
145 -144 161 -163 148 -177z m337 -307 c131 -131 238 -244 238 -250 0 -38 -58
10 -273 225 -187 187 -235 240 -225 250 7 7 14 12 17 12 3 0 113 -107 243
-237z"/>
<path d="M1530 1700 l0 -140 25 0 25 0 0 140 0 140 -25 0 -25 0 0 -140z"/>
<path d="M1040 1320 l0 -140 95 0 c109 0 130 18 28 22 l-68 3 -3 128 -3 127
-24 0 -25 0 0 -140z"/>
<path d="M1820 1450 c0 -5 23 -10 50 -10 l50 0 0 -130 0 -130 30 0 30 0 0 130
0 130 50 0 c28 0 50 5 50 10 0 6 -50 10 -130 10 -80 0 -130 -4 -130 -10z"/>
</g>
</svg>
