<svg height="278pt" preserveAspectRatio="xMidYMid meet" viewBox="0 0 314 278" width="314pt" xmlns="http://www.w3.org/2000/svg"><g fill="#f1f1f1" transform="matrix(.1 0 0 -.1 0 278)"><path d="m1338 2521c-125-27-180-47-290-103-389-198-622-581-621-1018 1-377 173-706 489-933 77-56 248-134 359-164 93-26 113-28 290-27 173 0 199 2 288 27 186 50 350 142 489 275 237 226 358 506 358 826 0 128-10 200-46 323-107 373-418 677-799 779-137 36-385 44-517 15zm337-51c301-32 563-181 747-424 292-387 283-927-22-1311-344-432-965-530-1428-225-95 63-204 167-277 265-127 170-205 410-205 630 0 163 49 359 125 504 105 199 309 388 514 477 179 77 354 104 546 84z"/><path d="m2054 1931c-16-10-45-37-64-60-19-24-125-135-235-247l-200-205-188 193c-103 106-211 219-241 251-29 31-60 57-69 57-27 0-77-50-77-76s92-134 114-134c6 0 94-83 196-185l185-185-228-228c-177-178-227-234-227-253 0-30 28-59 56-59 12 0 108 89 249 230l230 230 245-245c161-160 253-245 266-245 12 0 28 8 37 18 38 42 28 56-225 310l-243 242 202 198c111 108 229 221 262 251 68 61 78 92 39 128-34 30-52 33-84 14zm-532-664c-331-330-442-436-455-431-9 3-17 11-17 18 0 6 201 211 446 456 423 423 446 444 455 420 9-23-18-52-429-463zm-7 113c-14-13-33 3-177 147-141 141-159 163-147 176 12 14 33-4 176-146 145-144 161-163 148-177zm337-307c131-131 238-244 238-250 0-38-58 10-273 225-187 187-235 240-225 250 7 7 14 12 17 12s113-107 243-237z"/><path d="m1530 1700v-140h25 25v140 140h-25-25z"/><path d="m1040 1320v-140h95c109 0 130 18 28 22l-68 3-3 128-3 127h-24-25z"/><path d="m1820 1450c0-5 23-10 50-10h50v-130-130h30 30v130 130h50c28 0 50 5 50 10 0 6-50 10-130 10s-130-4-130-10z"/></g></svg>