<svg fill="none" height="108" viewBox="0 0 108 108" width="108" xmlns="http://www.w3.org/2000/svg"><path d="m54 0c-29.7 0-54 24.3-54 54s24.3 54 54 54 54-24.3 54-54-24.03-54-54-54zm24.8445 78.03c-1.08 1.6155-2.97 2.16-4.5945 1.08-12.69-7.83-28.62-9.4545-47.5245-5.1345-1.881.549-3.5055-.8055-4.0455-2.4255-.54-1.8945.81-3.51 2.43-4.05 20.52-4.5945 38.34-2.7 52.38 5.94 1.89.81 2.1555 2.9655 1.3545 4.59zm6.48-14.85c-1.3545 1.89-3.7845 2.7-5.679 1.35-14.5755-8.91-36.7155-11.61-53.7255-6.21-2.1555.54-4.59-.54-5.13-2.7s.54-4.5945 2.7-5.1345c19.71-5.9355 44.01-2.961 60.75 7.2945 1.6245.8145 2.43 3.51 1.0845 5.4zm.54-15.12c-17.2845-10.26-46.1745-11.34-62.6445-6.2055-2.7.8055-5.4-.8145-6.21-3.2445-.81-2.7045.81-5.4 3.24-6.2145 19.17-5.67 50.76-4.59 70.7445 7.2945 2.4255 1.35 3.2355 4.59 1.8855 7.02-1.3455 1.8945-4.59 2.6955-7.0155 1.35z" fill="#f1f1f1"/></svg>